<svg xmlns="http://www.w3.org/2000/svg" xmlns:xlink="http://www.w3.org/1999/xlink" viewBox="0 0 138.1 138.13"><defs><style>.cls-1{fill:url(#linear-gradient);}.cls-2{fill:url(#linear-gradient-2);}</style><linearGradient id="linear-gradient" y1="84.93" x2="138.1" y2="84.93" gradientUnits="userSpaceOnUse"><stop offset="0" stop-color="#045304"/><stop offset="1" stop-color="#a8e922"/></linearGradient><linearGradient id="linear-gradient-2" x1="65.39" y1="30.01" x2="72.72" y2="0.44" xlink:href="#linear-gradient"/></defs><title>Color_1</title><g id="Layer_2" data-name="Layer 2"><g id="Layer_1-2" data-name="Layer 1"><path class="cls-1" d="M127.14,31.72c-5,13.23-34.82,24.5-58.09,39.7C45.79,56.22,16,45,11,31.73a69,69,0,1,0,116.17,0ZM100.37,91.13C92.43,99.42,82.55,108.16,75,118a72,72,0,0,0-5.89,8.78,73.23,73.23,0,0,0-5.9-8.78c-7.6-9.82-17.48-18.57-25.42-26.86S23.73,74.91,24,66.86c0-.4,0-.8.08-1.21s.11-.81.18-1.21c2.86,8.8,9.09,15.58,16.39,21.85,3,2.54,6.1,5,9.26,7.48l.78.62.05,0,.73.57.1.08.69.54.15.12.63.5.2.16.58.46.26.2.53.42.3.24.48.39.35.28.42.35.4.32.14.11.52.43.17.14.33.26.16.14.51.43.34.28.4.34.39.33.45.38.25.21.51.45.31.26.47.42h0l.73.64,0,0,.74.67,0,0,.71.66.07.06c.23.21.44.42.67.62l.58.56.18.17.46.45.3.29,1.16,1.16.28.29.48.5.2.21.48.51.25.27.22.24.21-.24.25-.27.48-.51.2-.21.48-.5.28-.29.44-.44.28-.28.44-.44.3-.29.46-.45.18-.17.58-.56.67-.62.07-.06.72-.66,0,0,.74-.67,0,0,.72-.64h0l.47-.42.31-.26.51-.45.26-.21.44-.38.39-.33.4-.34.34-.28.51-.43.17-.14.32-.26.17-.14.52-.43.14-.11.4-.32.42-.35.35-.28.48-.39.3-.24.54-.42.25-.2.58-.46.2-.16.63-.5.15-.12.68-.54.11-.08.73-.57,0,0,.78-.62c3.16-2.48,6.3-4.94,9.26-7.48C104.79,80,111,73.24,113.88,64.44c.07.4.13.81.18,1.21s.07.81.08,1.21C114.37,74.91,108.35,82.79,100.37,91.13Z"/><circle class="cls-2" cx="69.05" cy="15.22" r="15.22"/></g></g></svg>